<svg id="Capa_1" enable-background="new 0 0 512 512" height="512" viewBox="0 0 512 512" width="512" xmlns="http://www.w3.org/2000/svg"><g><path d="m353.876 372.212c44.332 0 80.271-37.608 80.271-84.001 0-17.602-5.175-33.939-14.018-47.436-15.271-23.306-20.82-51.506-16.031-78.955 1.501-8.606 2.291-17.533 2.291-26.685 0-70.491-46.846-127.635-104.633-127.635-10.473 0-20.586 1.879-30.125 5.373-10.081 3.693-21.18 3.693-31.261 0-9.54-3.494-19.653-5.373-30.126-5.373-57.787 0-104.633 57.144-104.633 127.634 0 9.152.79 18.079 2.291 26.685 4.788 27.449-.761 55.649-16.031 78.955-8.844 13.497-14.018 29.834-14.018 47.436 0 46.392 35.938 84.001 80.271 84.001h195.752z" fill="#ea806f"/><path d="m434.145 288.209c0 46.391-35.934 84.003-80.264 84.003h-45.914c44.33 0 80.274-37.612 80.274-84.003 0-17.597-5.172-33.939-14.018-47.431-15.273-23.313-20.82-51.508-16.032-78.962 1.499-8.602 2.286-17.531 2.286-26.677 0-60.868-34.932-111.795-81.67-124.557 7.383-2.014 15.067-3.082 22.947-3.082 57.785 0 104.636 57.148 104.636 127.64 0 9.145-.787 18.075-2.296 26.677-4.788 27.454.759 55.649 16.032 78.962 8.846 13.492 14.019 29.833 14.019 47.43z" fill="#c4715c"/><path d="m419.867 414.332v90.168h-327.734v-90.168c0-52.754 42.761-95.525 95.515-95.525h136.702c52.756 0 95.517 42.77 95.517 95.525z" fill="#fc5a95"/><path d="m282.244 412.379c-10.486 0-19.882 4.968-26.244 12.819-6.362-7.851-15.749-12.819-26.235-12.819-19.162 0-34.692 16.573-34.692 37.025 0 14.469 10.714 37.129 34 55.096h53.864c23.277-17.967 33.991-40.628 33.991-55.096-.001-20.452-15.531-37.025-34.684-37.025z" fill="#eaf6ff"/><path d="m316.927 449.403c0 14.469-10.714 37.129-33.991 55.096h-29.203c23.277-17.967 33.991-40.628 33.991-55.096 0-14.886-8.22-27.714-20.091-33.592 4.437-2.2 9.387-3.432 14.611-3.432 19.153 0 34.683 16.573 34.683 37.024z" fill="#d9ecfd"/><path d="m419.867 414.332v90.168h-35.413v-90.168c0-52.754-42.761-95.525-95.515-95.525h35.413c52.754 0 95.515 42.77 95.515 95.525z" fill="#fb3a82"/><path d="m322.54 318.807c0 36.749-29.791 66.54-66.54 66.54s-66.54-29.791-66.54-66.54z" fill="#ffbfb0"/><path d="m217.126 275.999h77.747v59.571h-77.747z" fill="#ffbfb0"/><path d="m294.874 275.999v34.759c-12.212 4.873-25.372 7.433-38.874 7.433s-26.662-2.56-38.874-7.433v-34.759z" fill="#ffa792"/><circle cx="346.131" cy="184.47" fill="#ffa792" r="28.624"/><path d="m298.699 107.808c25.894 0 46.599 21.525 45.593 47.4l-2.392 61.383c-1.788 46.15-39.719 82.637-85.901 82.637s-84.113-36.487-85.901-82.637l-1.605-41.281-2.629-67.501h132.835z" fill="#ffcec0"/><ellipse cx="211.403" cy="227.018" fill="#fc95bb" rx="13.121" ry="9.516"/><ellipse cx="300.597" cy="227.018" fill="#fc95bb" rx="13.121" ry="9.516"/><path d="m160.749 167.787h18.413c37.516 0 73.152-16.421 97.527-44.94l28.477-33.319h-153.787v68.889c0 5.174 4.195 9.37 9.37 9.37z" fill="#ea806f"/><g><path d="m441.647 288.211c0-18.501-5.271-36.326-15.245-51.546-14.131-21.567-19.428-47.689-14.916-73.557 1.594-9.141 2.402-18.552 2.402-27.974 0-29.211-7.595-57.013-21.964-80.398-2.168-3.529-6.788-4.634-10.316-2.464-3.529 2.168-4.632 6.787-2.464 10.316 12.917 21.022 19.744 46.108 19.744 72.546 0 8.56-.733 17.104-2.18 25.396-5.169 29.633.92 59.59 17.146 84.354 8.368 12.771 12.792 27.753 12.792 43.326 0 22.482-9.126 43.32-25.189 57.882-18.887-21.321-46.452-34.786-77.107-34.786h-21.978v-16.879c6.614-3.789 12.807-8.403 18.425-13.808 16.639-16.005 26.622-37.257 28.377-60.164 18.498-1.553 33.079-17.094 33.079-35.986 0-18.056-13.315-33.06-30.642-35.709-1.032-12.053-6.091-23.285-14.627-32.16-8.529-8.867-19.546-14.356-31.538-15.86l5.419-6.34c2.691-3.149 2.32-7.883-.828-10.574-3.149-2.691-7.882-2.32-10.574.828l-28.477 33.319c-9.442 11.047-20.693 20.217-33.442 27.256-3.626 2.002-4.943 6.565-2.941 10.191 1.368 2.477 3.93 3.876 6.573 3.876 1.226 0 2.469-.301 3.618-.936 14.33-7.912 26.979-18.222 37.594-30.642l10.611-12.415h5.696c10.465 0 20.224 4.154 27.479 11.696s11.026 17.454 10.621 27.911l-2.384 61.39c-1.643 42.295-36.085 75.426-78.412 75.426s-76.769-33.131-78.412-75.426l-1.593-41.015h3.167c11.182 0 22.359-1.39 33.22-4.13 4.016-1.013 6.451-5.091 5.437-9.107s-5.091-6.451-9.107-5.437c-9.663 2.438-19.604 3.674-29.55 3.674h-18.411c-1.031 0-1.87-.839-1.87-1.87v-45.924c0-4.142-3.358-7.5-7.5-7.5s-7.5 3.358-7.5 7.5v45.924c0 9.302 7.568 16.87 16.87 16.87h.235l1.615 41.597c.942 24.266 11.1 46.902 28.602 63.737 5.619 5.405 11.811 10.019 18.425 13.808v16.879h-21.978c-30.654 0-58.218 13.464-77.105 34.784-16.072-14.553-25.191-35.34-25.191-57.88 0-15.573 4.423-30.554 12.792-43.326 16.226-24.764 22.315-54.722 17.146-84.354-1.446-8.292-2.18-16.836-2.18-25.396 0-66.242 43.574-120.134 97.133-120.134 9.373 0 18.641 1.654 27.546 4.916 11.742 4.302 24.678 4.302 36.42 0 8.905-3.262 18.173-4.916 27.546-4.916 21.047 0 41.087 8.222 57.954 23.776 3.045 2.809 7.791 2.616 10.598-.429 2.808-3.045 2.616-7.79-.429-10.598-19.685-18.153-43.242-27.749-68.123-27.749-11.139 0-22.143 1.962-32.705 5.831-8.416 3.083-17.686 3.083-26.102 0-10.562-3.869-21.566-5.831-32.705-5.831-61.83 0-112.133 60.621-112.133 135.134 0 9.421.808 18.833 2.403 27.974 4.512 25.867-.786 51.99-14.917 73.556-9.973 15.221-15.245 33.045-15.245 51.546 0 27.258 11.252 52.41 31.053 69.84-10.599 16.19-16.773 35.526-16.773 56.28v25.141c0 4.142 3.358 7.5 7.5 7.5s7.5-3.358 7.5-7.5v-25.141c0-46.762 36.65-85.118 82.73-87.861 3.839 37.557 35.373 66.377 73.636 66.377 38.31 0 69.8-28.803 73.633-66.377 46.081 2.742 82.733 41.099 82.733 87.861v90.165c0 4.142 3.358 7.5 7.5 7.5s7.5-3.358 7.5-7.5v-90.165c0-20.758-6.176-40.097-16.778-56.288 19.79-17.438 31.061-42.645 31.061-69.831zm-74.392-103.741c0 10.376-7.526 19.01-17.403 20.775l1.6-41.194c9.076 2.368 15.803 10.612 15.803 20.419zm-111.255 193.377c-30.04 0-54.874-22.275-58.555-51.54h12.182v9.263c0 4.142 3.358 7.5 7.5 7.5s7.5-3.358 7.5-7.5v-34.243c9.955 3.542 20.535 5.401 31.374 5.401s21.419-1.859 31.374-5.401v34.243c0 4.142 3.358 7.5 7.5 7.5s7.5-3.358 7.5-7.5v-9.263h12.184c-3.678 29.279-28.481 51.54-58.559 51.54z"/><path d="m92.133 464.962c-4.142 0-7.5 3.358-7.5 7.5v32.034c0 4.142 3.358 7.5 7.5 7.5s7.5-3.358 7.5-7.5v-32.034c0-4.142-3.358-7.5-7.5-7.5z"/><path d="m256 226.798c4.142 0 7.5-3.358 7.5-7.5v-34.828c0-4.142-3.358-7.5-7.5-7.5s-7.5 3.358-7.5 7.5v34.828c0 4.142 3.358 7.5 7.5 7.5z"/><path d="m210.091 182.356c-4.697 0-9.372.965-13.519 2.791-3.791 1.668-5.512 6.095-3.843 9.886 1.668 3.791 6.094 5.509 9.886 3.843 4.516-1.987 10.436-1.987 14.952 0 .983.433 2.008.638 3.018.638 2.883 0 5.632-1.672 6.868-4.48 1.669-3.791-.052-8.217-3.843-9.886-4.147-1.827-8.821-2.792-13.519-2.792z"/><path d="m294.433 198.875c4.516-1.987 10.436-1.987 14.952 0 .983.433 2.008.638 3.018.638 2.883 0 5.632-1.672 6.868-4.48 1.669-3.791-.052-8.217-3.843-9.886-4.147-1.826-8.822-2.791-13.519-2.791s-9.372.965-13.519 2.791c-3.791 1.668-5.512 6.095-3.843 9.886 1.668 3.79 6.095 5.509 9.886 3.842z"/><path d="m239.131 240.569c-4.118.448-7.093 4.149-6.646 8.267 1.307 12.02 11.416 21.083 23.514 21.083s22.208-9.064 23.514-21.083c.448-4.118-2.527-7.819-6.646-8.267-4.115-.445-7.819 2.527-8.267 6.646-.478 4.392-4.176 7.705-8.602 7.705s-8.125-3.313-8.602-7.705c-.446-4.118-4.139-7.09-8.265-6.646z"/><path d="m365.984 418.301c-4.142 0-7.5 3.358-7.5 7.5v78.695c0 4.142 3.358 7.5 7.5 7.5s7.5-3.358 7.5-7.5v-78.695c0-4.142-3.358-7.5-7.5-7.5z"/><path d="m146.016 418.301c-4.142 0-7.5 3.358-7.5 7.5v78.695c0 4.142 3.358 7.5 7.5 7.5s7.5-3.358 7.5-7.5v-78.695c0-4.142-3.358-7.5-7.5-7.5z"/><path d="m282.245 404.878c-9.621 0-18.842 3.451-26.244 9.662-7.402-6.211-16.619-9.662-26.235-9.662-23.265 0-42.192 19.974-42.192 44.525 0 16.201 11.416 41.356 36.918 61.034 3.28 2.53 7.989 1.922 10.52-1.356 2.53-3.279 1.923-7.989-1.356-10.52-21.355-16.477-31.082-37.033-31.082-49.158 0-16.28 12.198-29.525 27.192-29.525 7.798 0 15.237 3.66 20.408 10.041 1.424 1.757 3.565 2.778 5.827 2.778s4.403-1.021 5.827-2.778c5.171-6.381 12.613-10.041 20.417-10.041 14.989 0 27.183 13.245 27.183 29.525 0 12.125-9.724 32.68-31.073 49.159-3.279 2.531-3.886 7.241-1.354 10.52 1.478 1.915 3.698 2.918 5.942 2.918 1.6 0 3.213-.51 4.578-1.563 25.496-19.68 36.908-44.834 36.908-61.033-.002-24.552-18.925-44.526-42.184-44.526z"/></g></g></svg>